<svg width="69" height="75" viewBox="0 0 69 75" fill="none" xmlns="http://www.w3.org/2000/svg">
<path d="M10.4688 9.875H22.5391C25.1328 9.875 27.3438 10.2656 29.1719 11.0469C31 11.8281 32.3984 12.9844 33.3672 14.5156C34.3516 16.0312 34.8438 17.9062 34.8438 20.1406C34.8438 21.8438 34.5312 23.3438 33.9062 24.6406C33.2812 25.9375 32.3984 27.0312 31.2578 27.9219C30.1172 28.7969 28.7578 29.4766 27.1797 29.9609L25.3984 30.8281H14.5469L14.5 26.1641H22.6328C24.0391 26.1641 25.2109 25.9141 26.1484 25.4141C27.0859 24.9141 27.7891 24.2344 28.2578 23.375C28.7422 22.5 28.9844 21.5156 28.9844 20.4219C28.9844 19.2344 28.75 18.2031 28.2812 17.3281C27.8281 16.4375 27.125 15.7578 26.1719 15.2891C25.2188 14.8047 24.0078 14.5625 22.5391 14.5625H16.3516V44H10.4688V9.875ZM29.9453 44L21.9297 28.6719L28.0938 28.6484L36.2266 43.6953V44H29.9453Z" fill="white"/>
<path d="M3.46875 9.875H15.5391C18.1328 9.875 20.3438 10.2656 22.1719 11.0469C24 11.8281 25.3984 12.9844 26.3672 14.5156C27.3516 16.0312 27.8438 17.9062 27.8438 20.1406C27.8438 21.8438 27.5312 23.3438 26.9062 24.6406C26.2812 25.9375 25.3984 27.0312 24.2578 27.9219C23.1172 28.7969 21.7578 29.4766 20.1797 29.9609L18.3984 30.8281H7.54688L7.5 26.1641H15.6328C17.0391 26.1641 18.2109 25.9141 19.1484 25.4141C20.0859 24.9141 20.7891 24.2344 21.2578 23.375C21.7422 22.5 21.9844 21.5156 21.9844 20.4219C21.9844 19.2344 21.75 18.2031 21.2812 17.3281C20.8281 16.4375 20.125 15.7578 19.1719 15.2891C18.2188 14.8047 17.0078 14.5625 15.5391 14.5625H9.35156V44H3.46875V9.875ZM22.9453 44L14.9297 28.6719L21.0938 28.6484L29.2266 43.6953V44H22.9453Z" fill="white"/>
</svg>
